<?xml version="1.0" standalone="no"?>
<!DOCTYPE svg PUBLIC "-//W3C//DTD SVG 20010904//EN"
 "http://www.w3.org/TR/2001/REC-SVG-20010904/DTD/svg10.dtd">
<svg version="1.0" xmlns="http://www.w3.org/2000/svg"
 width="540.000000pt" height="540.000000pt" viewBox="0 0 540.000000 540.000000"
 preserveAspectRatio="xMidYMid meet">

<g transform="translate(0.000000,540.000000) scale(0.100000,-0.100000)"
fill="white" stroke="none">
<path d="M795 4936 c-84 -21 -147 -57 -211 -121 -65 -65 -105 -136 -123 -223
-16 -75 -15 -1910 0 -1984 37 -171 177 -311 347 -347 36 -7 277 -11 747 -11
l695 0 0 -695 c0 -479 4 -710 11 -747 37 -171 177 -311 347 -347 74 -15 1910
-15 1984 0 77 16 180 74 232 129 53 56 99 144 115 218 15 74 16 1909 0 1984
-36 170 -176 311 -347 347 -36 7 -275 11 -747 11 l-695 0 0 695 c0 470 -4 711
-11 747 -36 170 -176 311 -347 347 -80 17 -1929 14 -1997 -3z m1461 -1126
c151 -377 274 -688 274 -691 0 -3 -19 -15 -42 -25 -24 -10 -68 -44 -99 -74
-58 -56 -90 -109 -118 -193 l-16 -47 -69 185 -69 185 -320 -2 -319 -3 -82
-220 -81 -220 -208 -3 -207 -2 13 32 c7 18 168 423 358 901 l344 867 183 -2
184 -3 274 -685z m1428 -1149 c37 -18 88 -55 120 -87 51 -51 56 -60 56 -101
l0 -44 -31 22 c-74 53 -227 75 -295 43 -75 -36 -126 -124 -110 -190 10 -40 63
-81 136 -106 111 -38 264 -25 439 37 24 8 45 14 46 13 3 -4 -115 -431 -121
-437 -2 -2 -30 10 -61 27 -80 42 -166 56 -256 42 -94 -14 -144 -38 -190 -89
-55 -61 -79 -122 -85 -217 -5 -99 13 -142 100 -226 131 -129 367 -202 718
-224 l115 -6 -35 -29 c-139 -117 -435 -199 -665 -186 -272 16 -508 145 -597
325 -32 64 -33 71 -33 188 l0 121 44 89 c48 97 145 205 231 259 25 15 47 29
49 31 2 2 -12 28 -31 57 -64 96 -80 136 -85 217 -9 124 27 247 102 349 112
152 283 199 439 122z"/>
<path d="M1687 3717 c-59 -177 -107 -328 -107 -335 0 -9 52 -12 220 -12 168 0
220 3 220 12 0 19 -214 658 -220 658 -3 0 -54 -145 -113 -323z"/>
</g>
</svg>
